<?xml version="1.0" encoding="UTF-8"?>
<!DOCTYPE svg PUBLIC "-//W3C//DTD SVG 1.1//EN" "http://www.w3.org/Graphics/SVG/1.1/DTD/svg11.dtd">
<svg xmlns="http://www.w3.org/2000/svg" version="1.1" width="64px" height="64px" style="shape-rendering:geometricPrecision; text-rendering:geometricPrecision; image-rendering:optimizeQuality; fill-rule:evenodd; clip-rule:evenodd" xmlns:xlink="http://www.w3.org/1999/xlink">
<g><path style="opacity:0.604" fill="#29251c" d="M 12.5,5.5 C 20.1739,5.33365 27.8406,5.50031 35.5,6C 36.8333,7.66667 38.1667,9.33333 39.5,11C 47.1594,11.4997 54.8261,11.6664 62.5,11.5C 62.5,24.1667 62.5,36.8333 62.5,49.5C 60.712,49.2148 59.0453,49.5481 57.5,50.5C 54.6668,57.0853 50.0002,58.9186 43.5,56C 41.5494,54.2658 40.5494,52.0991 40.5,49.5C 34.8236,49.3339 29.1569,49.5006 23.5,50C 19.5418,58.4098 14.0418,59.5765 7,53.5C 6.50999,52.2068 6.34332,50.8734 6.5,49.5C 4.5,49.5 2.5,49.5 0.5,49.5C 0.334316,45.1539 0.500982,40.8206 1,36.5C 3.37422,32.2505 5.87422,28.0838 8.5,24C 11.4816,23.502 14.4816,23.3354 17.5,23.5C 17.5,22.1667 17.5,20.8333 17.5,19.5C 13.1161,19.8256 8.7828,19.4922 4.5,18.5C 7.4396,14.278 10.1063,9.9447 12.5,5.5 Z M 13.5,47.5 C 16.6741,47.9522 17.0075,48.9522 14.5,50.5C 13.6143,49.675 13.281,48.675 13.5,47.5 Z M 47.5,47.5 C 50.6741,47.9522 51.0075,48.9522 48.5,50.5C 47.6143,49.675 47.281,48.675 47.5,47.5 Z"/></g>
<g><path style="opacity:1" fill="#b5e0ef" d="M 13.5,9.5 C 17.1667,9.5 20.8333,9.5 24.5,9.5C 24.5,11.5 24.5,13.5 24.5,15.5C 19.1563,15.666 13.8229,15.4994 8.5,15C 9.83336,12.8094 11.5,10.976 13.5,9.5 Z"/></g>
<g><path style="opacity:0.998" fill="#f49602" d="M 61.5,18.5 C 53.8333,18.5 46.1667,18.5 38.5,18.5C 38.1805,23.3633 38.5139,28.03 39.5,32.5C 46.6476,33.4916 53.9809,33.825 61.5,33.5C 61.5,38.5 61.5,43.5 61.5,48.5C 59.8333,48.5 58.1667,48.5 56.5,48.5C 56.6254,45.3918 55.2921,43.3918 52.5,42.5C 49.2142,39.7327 46.2142,40.0661 43.5,43.5C 42.0937,43.9731 41.427,44.9731 41.5,46.5C 40.2209,47.968 38.5542,48.6347 36.5,48.5C 36.5,38.5 36.5,28.5 36.5,18.5C 32.5,18.5 28.5,18.5 24.5,18.5C 24.8319,28.5222 24.4985,38.5222 23.5,48.5C 22.8182,47.7573 22.1515,47.0906 21.5,46.5C 20.5116,45.205 19.5116,43.8717 18.5,42.5C 15.2142,39.7327 12.2142,40.0661 9.5,43.5C 8.09368,43.9731 7.42702,44.9731 7.5,46.5C 5.88629,48.0746 3.88629,48.7413 1.5,48.5C 1.23383,44.4295 1.56716,40.4295 2.5,36.5C 7.79207,35.5052 13.1254,35.1718 18.5,35.5C 18.5,32.5 18.5,29.5 18.5,26.5C 5.36319,26.301 5.36319,25.6344 18.5,24.5C 18.5,22.5 18.5,20.5 18.5,18.5C 14.774,18.8226 11.1073,18.4892 7.5,17.5C 13.4632,16.5041 19.4632,16.1707 25.5,16.5C 25.8016,13.9407 25.4682,11.6074 24.5,9.5C 20.8333,9.5 17.1667,9.5 13.5,9.5C 13.5,8.5 13.5,7.5 13.5,6.5C 20.5079,6.33371 27.5079,6.50038 34.5,7C 35.7899,9.29201 37.4565,11.292 39.5,13C 46.8258,13.4997 54.1591,13.6663 61.5,13.5C 61.5,15.1667 61.5,16.8333 61.5,18.5 Z"/></g>
<g><path style="opacity:0.753" fill="#8c5c0f" d="M 61.5,18.5 C 61.5,18.8333 61.5,19.1667 61.5,19.5C 54.1667,19.5 46.8333,19.5 39.5,19.5C 39.5,23.8333 39.5,28.1667 39.5,32.5C 38.5139,28.03 38.1805,23.3633 38.5,18.5C 46.1667,18.5 53.8333,18.5 61.5,18.5 Z"/></g>
<g><path style="opacity:0.769" fill="#748d95" d="M 35.5,20.5 C 32.5,20.5 29.5,20.5 26.5,20.5C 26.5,29.8333 26.5,39.1667 26.5,48.5C 25.5062,39.0144 25.1729,29.3478 25.5,19.5C 29.0419,19.1872 32.3752,19.5206 35.5,20.5 Z"/></g>
<g><path style="opacity:1" fill="#beebfc" d="M 35.5,20.5 C 35.5,29.8333 35.5,39.1667 35.5,48.5C 32.5,48.5 29.5,48.5 26.5,48.5C 26.5,39.1667 26.5,29.8333 26.5,20.5C 29.5,20.5 32.5,20.5 35.5,20.5 Z"/></g>
<g><path style="opacity:1" fill="#bbe8f8" d="M 61.5,19.5 C 61.5,23.8333 61.5,28.1667 61.5,32.5C 54.1667,32.5 46.8333,32.5 39.5,32.5C 39.5,28.1667 39.5,23.8333 39.5,19.5C 46.8333,19.5 54.1667,19.5 61.5,19.5 Z"/></g>
<g><path style="opacity:1" fill="#bce9fa" d="M 7.5,27.5 C 10.8333,27.5 14.1667,27.5 17.5,27.5C 17.5,29.8333 17.5,32.1667 17.5,34.5C 13.1161,34.8256 8.7828,34.4922 4.5,33.5C 5.51328,31.4734 6.51328,29.4734 7.5,27.5 Z"/></g>
<g><path style="opacity:0.986" fill="#1c1d1a" d="M 27.5,28.5 C 28.2389,28.369 28.9056,28.5357 29.5,29C 28.7256,31.405 28.2256,33.905 28,36.5C 27.5026,33.854 27.3359,31.1873 27.5,28.5 Z"/></g>
<g><path style="opacity:0.749" fill="#654512" d="M 39.5,34.5 C 45.2055,34.1712 50.8722,34.5046 56.5,35.5C 53.6667,35.8333 50.8333,36.1667 48,36.5C 44.7485,36.4809 41.9151,35.8142 39.5,34.5 Z"/></g>
<g><path style="opacity:0.749" fill="#7e5412" d="M 39.5,37.5 C 41.288,37.2148 42.9547,37.5481 44.5,38.5C 43.6667,38.8333 42.8333,39.1667 42,39.5C 40.6244,39.3158 39.7911,38.6491 39.5,37.5 Z"/></g>
<g><path style="opacity:0.761" fill="#715a1f" d="M 18.5,42.5 C 15.4299,42.3677 12.4299,42.701 9.5,43.5C 12.2142,40.0661 15.2142,39.7327 18.5,42.5 Z"/></g>
<g><path style="opacity:0.753" fill="#53451e" d="M 52.5,42.5 C 49.4299,42.3677 46.4299,42.701 43.5,43.5C 46.2142,40.0661 49.2142,39.7327 52.5,42.5 Z"/></g>
<g><path style="opacity:1" fill="#f0cf31" d="M 18.5,42.5 C 19.5116,43.8717 20.5116,45.205 21.5,46.5C 21.0064,55.1664 16.8397,57.4997 9,53.5C 7.79777,51.3225 7.29777,48.9892 7.5,46.5C 8.90632,46.0269 9.57298,45.0269 9.5,43.5C 12.4299,42.701 15.4299,42.3677 18.5,42.5 Z M 13.5,47.5 C 13.281,48.675 13.6143,49.675 14.5,50.5C 17.0075,48.9522 16.6741,47.9522 13.5,47.5 Z"/></g>
<g><path style="opacity:1" fill="#f2d031" d="M 52.5,42.5 C 56.7968,47.1445 56.4635,51.3112 51.5,55C 44.65,56.3173 41.3167,53.4839 41.5,46.5C 42.9063,46.0269 43.573,45.0269 43.5,43.5C 46.4299,42.701 49.4299,42.3677 52.5,42.5 Z M 47.5,47.5 C 47.281,48.675 47.6143,49.675 48.5,50.5C 51.0075,48.9522 50.6741,47.9522 47.5,47.5 Z"/></g>
<g><path style="opacity:0.769" fill="#574b22" d="M 9.5,43.5 C 9.57298,45.0269 8.90632,46.0269 7.5,46.5C 7.42702,44.9731 8.09368,43.9731 9.5,43.5 Z"/></g>
<g><path style="opacity:0.816" fill="#433b20" d="M 43.5,43.5 C 43.573,45.0269 42.9063,46.0269 41.5,46.5C 41.427,44.9731 42.0937,43.9731 43.5,43.5 Z"/></g>
<g><path style="opacity:0.599" fill="#21201b" d="M 13.5,45.5 C 16.9656,46.109 17.9656,47.9423 16.5,51C 11.2894,51.5464 10.2894,49.713 13.5,45.5 Z M 13.5,47.5 C 13.281,48.675 13.6143,49.675 14.5,50.5C 17.0075,48.9522 16.6741,47.9522 13.5,47.5 Z"/></g>
<g><path style="opacity:0.562" fill="#28261c" d="M 47.5,45.5 C 51.35,45.7007 52.35,47.5341 50.5,51C 45.2894,51.5464 44.2894,49.713 47.5,45.5 Z M 47.5,47.5 C 47.281,48.675 47.6143,49.675 48.5,50.5C 51.0075,48.9522 50.6741,47.9522 47.5,47.5 Z"/></g>
</svg>
